<svg width="51" height="50" viewBox="0 0 51 50" fill="none" xmlns="http://www.w3.org/2000/svg">
<g filter="url(#filter0_d_120_351489)">
<rect x="10.5" y="6" width="30" height="30" rx="15" fill="white" shape-rendering="crispEdges"/>
<path d="M32.6035 20.9931C32.3941 20.9931 32.1933 21.0762 32.0453 21.2243C31.8972 21.3724 31.814 21.5732 31.814 21.7825V26.5194C31.814 26.7288 31.7309 26.9296 31.5828 27.0776C31.4348 27.2257 31.234 27.3089 31.0246 27.3089H19.9719C19.7626 27.3089 19.5617 27.2257 19.4137 27.0776C19.2656 26.9296 19.1825 26.7288 19.1825 26.5194V15.4667C19.1825 15.2574 19.2656 15.0566 19.4137 14.9085C19.5617 14.7605 19.7626 14.6773 19.9719 14.6773H24.7088C24.9182 14.6773 25.119 14.5941 25.267 14.446C25.4151 14.298 25.4983 14.0972 25.4983 13.8878C25.4983 13.6784 25.4151 13.4776 25.267 13.3296C25.119 13.1815 24.9182 13.0983 24.7088 13.0983H19.9719C19.3438 13.0983 18.7414 13.3479 18.2972 13.792C17.853 14.2362 17.6035 14.8386 17.6035 15.4667V26.5194C17.6035 27.1475 17.853 27.7499 18.2972 28.1941C18.7414 28.6383 19.3438 28.8878 19.9719 28.8878H31.0246C31.6527 28.8878 32.2551 28.6383 32.6993 28.1941C33.1435 27.7499 33.393 27.1475 33.393 26.5194V21.7825C33.393 21.5732 33.3098 21.3724 33.1618 21.2243C33.0137 21.0762 32.8129 20.9931 32.6035 20.9931ZM20.7614 21.5931V24.9404C20.7614 25.1498 20.8446 25.3506 20.9926 25.4987C21.1407 25.6467 21.3415 25.7299 21.5509 25.7299H24.8983C25.0022 25.7305 25.1051 25.7106 25.2013 25.6713C25.2975 25.632 25.385 25.5741 25.4588 25.501L30.9219 20.0299L33.164 17.8352C33.238 17.7618 33.2968 17.6745 33.3369 17.5783C33.3769 17.4821 33.3976 17.3789 33.3976 17.2746C33.3976 17.1704 33.3769 17.0672 33.3369 16.971C33.2968 16.8748 33.238 16.7875 33.164 16.7141L29.8167 13.3273C29.7433 13.2533 29.656 13.1945 29.5598 13.1545C29.4636 13.1144 29.3604 13.0938 29.2561 13.0938C29.1519 13.0938 29.0487 13.1144 28.9525 13.1545C28.8563 13.1945 28.769 13.2533 28.6956 13.3273L26.4693 15.5615L20.9904 21.0325C20.9172 21.1063 20.8593 21.1938 20.82 21.29C20.7807 21.3862 20.7608 21.4892 20.7614 21.5931ZM29.2561 15.001L31.4904 17.2352L30.3693 18.3562L28.1351 16.122L29.2561 15.001ZM22.3404 21.9167L27.0219 17.2352L29.2561 19.4694L24.5746 24.151H22.3404V21.9167Z" fill="#2B7DEB"/>
</g>
<defs>
<filter id="filter0_d_120_351489" x="0.5" y="0" width="50" height="50" filterUnits="userSpaceOnUse" color-interpolation-filters="sRGB">
<feFlood flood-opacity="0" result="BackgroundImageFix"/>
<feColorMatrix in="SourceAlpha" type="matrix" values="0 0 0 0 0 0 0 0 0 0 0 0 0 0 0 0 0 0 127 0" result="hardAlpha"/>
<feOffset dy="4"/>
<feGaussianBlur stdDeviation="5"/>
<feComposite in2="hardAlpha" operator="out"/>
<feColorMatrix type="matrix" values="0 0 0 0 0.67451 0 0 0 0 0.670588 0 0 0 0 0.713726 0 0 0 0.4 0"/>
<feBlend mode="normal" in2="BackgroundImageFix" result="effect1_dropShadow_120_351489"/>
<feBlend mode="normal" in="SourceGraphic" in2="effect1_dropShadow_120_351489" result="shape"/>
</filter>
</defs>
</svg>
