<svg width="37" height="37" viewBox="0 0 37 37" fill="none" xmlns="http://www.w3.org/2000/svg">
<g clip-path="url(#clip0_209_26092)">
<rect width="37" height="37" rx="12" fill="#D6DDEE"/>
<path d="M24.5647 22.0654C26.0353 20.9084 27.1087 19.3218 27.6356 17.5263C28.1625 15.7309 28.1166 13.8158 27.5044 12.0476C26.8922 10.2794 25.7441 8.74602 24.2199 7.66071C22.6956 6.57541 20.8709 5.99219 18.9997 5.99219C17.1286 5.99219 15.3039 6.57541 13.7796 7.66071C12.2554 8.74602 11.1073 10.2794 10.4951 12.0476C9.88287 13.8158 9.83702 15.7309 10.3639 17.5263C10.8908 19.3218 11.9642 20.9084 13.4347 22.0654C10.9149 23.075 8.71618 24.7495 7.07309 26.9103C5.43 29.0712 4.4041 31.6374 4.10475 34.3354C4.08308 34.5324 4.10043 34.7317 4.15579 34.922C4.21115 35.1123 4.30345 35.2898 4.42742 35.4444C4.67778 35.7567 5.04193 35.9567 5.43975 36.0004C5.83758 36.0442 6.23649 35.9281 6.54874 35.6778C6.86099 35.4274 7.06099 35.0633 7.10475 34.6654C7.43413 31.7332 8.83228 29.0251 11.0321 27.0586C13.2319 25.0921 16.0791 24.005 19.0297 24.005C21.9804 24.005 24.8276 25.0921 27.0274 27.0586C29.2272 29.0251 30.6254 31.7332 30.9547 34.6654C30.9955 35.034 31.1714 35.3744 31.4484 35.621C31.7254 35.8675 32.0839 36.0027 32.4547 36.0004H32.6197C33.0129 35.9552 33.3723 35.7564 33.6196 35.4473C33.8668 35.1382 33.9819 34.744 33.9397 34.3504C33.639 31.6447 32.6076 29.0719 30.956 26.9077C29.3045 24.7436 27.0951 23.0697 24.5647 22.0654ZM18.9997 21.0004C17.8131 21.0004 16.653 20.6485 15.6663 19.9892C14.6796 19.33 13.9106 18.3929 13.4565 17.2965C13.0023 16.2002 12.8835 14.9938 13.115 13.8299C13.3465 12.666 13.918 11.5969 14.7571 10.7578C15.5962 9.91868 16.6653 9.34723 17.8292 9.11572C18.9931 8.88421 20.1995 9.00303 21.2959 9.45715C22.3922 9.91128 23.3293 10.6803 23.9886 11.667C24.6479 12.6537 24.9997 13.8137 24.9997 15.0004C24.9997 16.5917 24.3676 18.1179 23.2424 19.2431C22.1172 20.3683 20.591 21.0004 18.9997 21.0004Z" fill="white"/>
</g>
<defs>
<clipPath id="clip0_209_26092">
<rect width="37" height="37" rx="12" fill="white"/>
</clipPath>
</defs>
</svg>
