<svg width="20" height="22" viewBox="0 0 20 22" fill="none" xmlns="http://www.w3.org/2000/svg">
<path d="M13.899 12.2269L13.894 12.2249C13.831 12.1979 13.77 12.1669 13.706 12.1419C14.4203 11.582 14.998 10.8671 15.3955 10.0511C15.7929 9.23516 15.9996 8.33953 16 7.43193C15.9976 7.22122 15.9826 7.01085 15.955 6.80193C15.9704 6.76217 15.9831 6.72141 15.993 6.67993L16.274 4.28293C16.3617 3.52546 16.1582 2.76297 15.7048 2.14989C15.2514 1.5368 14.582 1.11894 13.832 0.980929L13.042 0.837929C11.031 0.47069 8.97006 0.47069 6.95902 0.837929L6.16802 0.980929C5.41809 1.11894 4.74863 1.5368 4.29522 2.14989C3.84181 2.76297 3.63834 3.52546 3.72602 4.28293L4.00602 6.67993C4.01625 6.72143 4.02928 6.76219 4.04502 6.80193C4.01749 7.01085 4.00246 7.22122 4.00002 7.43193C4.00045 8.33953 4.20718 9.23516 4.60459 10.0511C5.00201 10.8671 5.57971 11.582 6.29402 12.1419C6.23002 12.1669 6.16902 12.1979 6.10602 12.2249L6.10102 12.2269C4.46395 12.9151 3.04093 14.0289 1.97969 15.4527C0.918455 16.8765 0.257698 18.5585 0.0660237 20.3239C0.0411258 20.5856 0.120228 20.8465 0.286221 21.0502C0.452213 21.254 0.69175 21.3842 0.953016 21.4128C1.21428 21.4413 1.47627 21.3658 1.68232 21.2026C1.88836 21.0395 2.02189 20.8018 2.05402 20.5409C2.19475 19.243 2.65302 17.9998 3.38834 16.921C4.12365 15.8423 5.11337 14.9613 6.27002 14.3559L9.29302 17.3789C9.48055 17.5664 9.73486 17.6717 10 17.6717C10.2652 17.6717 10.5195 17.5664 10.707 17.3789L13.73 14.3559C14.8867 14.9613 15.8764 15.8423 16.6117 16.921C17.347 17.9998 17.8053 19.243 17.946 20.5409C17.9726 20.7856 18.0885 21.0119 18.2715 21.1765C18.4546 21.3411 18.6919 21.4324 18.938 21.4329C18.9748 21.4329 19.0115 21.4309 19.048 21.4269C19.1786 21.4127 19.3052 21.3729 19.4204 21.3098C19.5356 21.2467 19.6373 21.1615 19.7196 21.059C19.8019 20.9566 19.8632 20.8389 19.9 20.7128C19.9367 20.5867 19.9483 20.4545 19.934 20.3239C19.7423 18.5584 19.0814 16.8764 18.0199 15.4525C16.9585 14.0287 15.5353 12.9149 13.898 12.2269H13.899ZM5.71202 4.04893C5.68298 3.79655 5.75088 3.54255 5.902 3.33833C6.05312 3.13412 6.27617 2.99493 6.52602 2.94893L7.31602 2.80593C9.09066 2.48161 10.9094 2.48161 12.684 2.80593L13.474 2.94893C13.7239 2.99493 13.9469 3.13412 14.098 3.33833C14.2492 3.54255 14.3171 3.79655 14.288 4.04893L14.11 5.56293H5.89002L5.71202 4.04893ZM10 15.2589L8.35002 13.6079C9.4376 13.3741 10.5624 13.3741 11.65 13.6079L10 15.2589ZM10 11.4329C8.96202 11.4317 7.96504 11.0275 7.21923 10.3056C6.47341 9.58364 6.03701 8.60034 6.00202 7.56293H13.998C13.963 8.60034 13.5266 9.58364 12.7808 10.3056C12.035 11.0275 11.038 11.4317 10 11.4329Z" fill="#7C818C"/>
</svg>
